<svg height="480pt" viewBox="-40 0 480 480.06874" width="480pt" xmlns="http://www.w3.org/2000/svg"><path d="m384.035156 432.070312h-65.753906l-22.734375-90.800781c70.53125-42.835937 103.917969-127.394531 81.679687-206.859375-22.242187-79.46875-94.671874-134.410156-177.191406-134.410156-82.523437 0-154.949218 54.941406-177.191406 134.410156-22.242188 79.464844 11.144531 164.023438 81.679688 206.859375l-22.738282 90.800781h-65.75c-8.835937 0-15.9999998 7.160157-15.9999998 16v16c0 8.835938 7.1640628 16 15.9999998 16h368c8.835938 0 16-7.164062 16-16v-16c0-8.839843-7.164062-16-16-16zm-352-248c.042969-69.867187 43.34375-132.402343 108.726563-157.023437 65.382812-24.621094 139.179687-6.179687 185.292969 46.300781 46.117187 52.484375 54.910156 128.039063 22.082031 189.710938-32.824219 61.671875-100.414063 96.570312-169.703125 87.625-21.378906-2.714844-42.027344-9.558594-60.800782-20.144532-52.8125-29.859374-85.507812-85.796874-85.597656-146.46875zm86.96875 165.269532.636719.296875c1.28125.617187 2.585937 1.167969 3.875 1.761719 1.964844.886718 3.917969 1.789062 5.917969 2.613281 2.320312.96875 4.679687 1.832031 7.046875 2.703125.800781.28125 1.554687.585937 2.339843.859375 39.613282 13.992187 82.828126 13.992187 122.445313 0 .753906-.265625 1.496094-.5625 2.242187-.800781 2.398438-.890626 4.796876-1.769532 7.199219-2.753907 1.894531-.796875 3.757813-1.597656 5.597657-2.488281 1.394531-.628906 2.800781-1.222656 4.167968-1.894531.203125-.097657.410156-.175781.601563-.273438l20.710937 82.707031h-203.503906zm265.03125 114.730468h-368v-16h368zm0 0"/><path d="m200.035156 112.070312c17.671875 0 32-14.328124 32-32 0-17.675781-14.328125-32-32-32-17.675781 0-32 14.324219-32 32 0 17.671876 14.324219 32 32 32zm0-48c8.835938 0 16 7.160157 16 16 0 8.835938-7.164062 16-16 16-8.835937 0-16-7.164062-16-16 0-8.839843 7.164063-16 16-16zm0 0"/><path d="m200.035156 208.070312c13.253906 0 24-10.746093 24-24 0-13.257812-10.746094-24-24-24s-24 10.742188-24 24c0 13.253907 10.746094 24 24 24zm0-32c4.417969 0 8 3.582032 8 8 0 4.417969-3.582031 8-8 8-4.417968 0-8-3.582031-8-8 0-4.417968 3.582032-8 8-8zm0 0"/><path d="m200.035156 304.070312c30.914063-.035156 55.964844-25.089843 56-56v-64c0-30.929687-25.074218-56-56-56-30.929687 0-56 25.070313-56 56v64c.035156 30.910157 25.085938 55.964844 56 56zm-40-120c0-22.09375 17.90625-40 40-40 22.089844 0 40 17.90625 40 40v64c0 22.089844-17.910156 40-40 40-22.09375 0-40-17.910156-40-40zm0 0"/></svg>