<svg height="480pt" viewBox="0 -48 480 480" width="480pt" xmlns="http://www.w3.org/2000/svg"><path d="m456 208h-208v-24c-.035156-30.914062-25.085938-55.964844-56-56h-96c-22.089844 0-40-17.910156-40-40s17.910156-40 40-40h184v8c0 13.253906 10.746094 24 24 24h64c4.417969 0 8-3.582031 8-8v-8h24c4.417969 0 8-3.582031 8-8v-32c0-4.417969-3.582031-8-8-8h-24v-8c0-4.417969-3.582031-8-8-8h-64c-13.253906 0-24 10.746094-24 24v8h-184c-30.929688 0-56 25.070312-56 56s25.070312 56 56 56h96c22.082031.027344 39.972656 17.917969 40 40v24h-208c-13.253906 0-24 10.746094-24 24v128c0 13.253906 10.746094 24 24 24h432c13.253906 0 24-10.746094 24-24v-128c0-13.253906-10.746094-24-24-24zm-64-176v16h-16v-16zm-96-8c0-4.417969 3.582031-8 8-8h56v48h-56c-4.417969 0-8-3.582031-8-8zm168 336c0 4.417969-3.582031 8-8 8h-432c-4.417969 0-8-3.582031-8-8v-128c0-4.417969 3.582031-8 8-8h432c4.417969 0 8 3.582031 8 8zm0 0"/><path d="m112 304c-13.253906 0-24 10.746094-24 24s10.746094 24 24 24 24-10.746094 24-24-10.746094-24-24-24zm0 32c-4.417969 0-8-3.582031-8-8s3.582031-8 8-8 8 3.582031 8 8-3.582031 8-8 8zm0 0"/><path d="m176 304c-13.253906 0-24 10.746094-24 24s10.746094 24 24 24 24-10.746094 24-24-10.746094-24-24-24zm0 32c-4.417969 0-8-3.582031-8-8s3.582031-8 8-8 8 3.582031 8 8-3.582031 8-8 8zm0 0"/><path d="m384 304c-13.253906 0-24 10.746094-24 24s10.746094 24 24 24 24-10.746094 24-24-10.746094-24-24-24zm0 32c-4.417969 0-8-3.582031-8-8s3.582031-8 8-8 8 3.582031 8 8-3.582031 8-8 8zm0 0"/><path d="m320 304c-13.253906 0-24 10.746094-24 24s10.746094 24 24 24 24-10.746094 24-24-10.746094-24-24-24zm0 32c-4.417969 0-8-3.582031-8-8s3.582031-8 8-8 8 3.582031 8 8-3.582031 8-8 8zm0 0"/><path d="m232 240h-176c-4.417969 0-8 3.582031-8 8v32c0 4.417969 3.582031 8 8 8h176c4.417969 0 8-3.582031 8-8v-32c0-4.417969-3.582031-8-8-8zm-8 32h-160v-16h160zm0 0"/><path d="m312 288h80c4.417969 0 8-3.582031 8-8v-32c0-4.417969-3.582031-8-8-8h-80c-4.417969 0-8 3.582031-8 8v32c0 4.417969 3.582031 8 8 8zm8-32h64v16h-64zm0 0"/></svg>