<svg height="480pt" viewBox="0 0 480 480" width="480pt" xmlns="http://www.w3.org/2000/svg"><path d="m456 0h-432c-13.253906 0-24 10.746094-24 24v432c0 13.253906 10.746094 24 24 24h432c13.253906 0 24-10.746094 24-24v-432c0-13.253906-10.746094-24-24-24zm8 456c0 4.417969-3.582031 8-8 8h-432c-4.417969 0-8-3.582031-8-8v-432c0-4.417969 3.582031-8 8-8h432c4.417969 0 8 3.582031 8 8zm0 0"/><path d="m448 368v-256c0-2.121094-.84375-4.15625-2.34375-5.65625l-72-72c-1.5-1.5-3.535156-2.34375-5.65625-2.34375h-256c-2.121094 0-4.15625.84375-5.65625 2.34375l-72 72c-1.5 1.5-2.34375 3.535156-2.34375 5.65625v256c0 2.121094.84375 4.15625 2.34375 5.65625l72 72c1.5 1.5 3.535156 2.34375 5.65625 2.34375h256c2.121094 0 4.15625-.84375 5.65625-2.34375l72-72c1.5-1.5 2.34375-3.535156 2.34375-5.65625zm-16-3.3125-67.3125 67.3125h-249.375l-67.3125-67.3125v-249.375l67.3125-67.3125h249.375l67.3125 67.3125zm0 0"/><path d="m243.527344 184c-5.125-10.734375-12.0625-20.5-20.511719-28.871094-.457031-.480468-.9375-.9375-1.449219-1.359375-42.109375-40.847656-91.550781-30.066406-111.703125-9.921875-1.5 1.5-2.34375 3.535156-2.34375 5.660156s.84375 4.160157 2.34375 5.660157l75.121094 75.039062c-.363281 2.03125-.609375 4.078125-.738281 6.136719-10.820313 5.136719-20.667969 12.113281-29.101563 20.625-.480469.457031-.933593.9375-1.359375 1.445312-40.863281 42.121094-30.074218 91.554688-9.921875 111.707032 1.5 1.5 3.535157 2.34375 5.65625 2.34375 2.121094 0 4.15625-.84375 5.65625-2.34375l75.039063-75.121094c2.03125.363281 4.078125.609375 6.136718.734375 5.136719 10.824219 12.113282 20.671875 20.625 29.105469.457032.480468.9375.933594 1.449219 1.359375 16.699219 17.34375 39.59375 27.355469 63.664063 27.839843 17.71875.414063 34.917968-6.003906 48.039062-17.917968 1.5-1.5 2.34375-3.539063 2.34375-5.660156 0-2.125-.84375-4.160157-2.34375-5.660157l-75.121094-75.039062c.363282-2.03125.609376-4.078125.734376-6.136719 10.824218-5.136719 20.671874-12.113281 29.105468-20.625.585938-.566406 1.0625-1.078125 1.542969-1.601562 40.640625-42.085938 29.855469-91.398438 9.738281-111.519532-1.5-1.5-3.535156-2.34375-5.65625-2.34375s-4.15625.84375-5.65625 2.34375l-74.90625 74.984375c-2.101562-.449219-4.234375-.738281-6.382812-.863281zm36.472656 56c.011719 3.515625-.46875 7.015625-1.433594 10.398438-4.554687 16.988281-19.699218 28.980468-37.277344 29.523437-.351562 0-.945312 0-1.289062.078125-3.515625.011719-7.015625-.46875-10.398438-1.433594-16.988281-4.554687-28.980468-19.699218-29.523437-37.277344 0-.351562 0-.945312-.078125-1.289062-.011719-3.515625.46875-7.015625 1.433594-10.398438 4.554687-16.988281 19.699218-28.980468 37.277344-29.523437.351562 0 .945312 0 1.289062-.078125 3.515625-.011719 7.015625.46875 10.398438 1.433594 16.988281 4.554687 28.980468 19.699218 29.523437 37.277344.015625.351562.023437.945312.078125 1.289062zm-69.136719-74.335938c.296875.25.578125.515626.839844.800782 5.769531 5.710937 10.746094 12.167968 14.800781 19.199218-.320312.078126-.617187.222657-.945312.304688-1.597656.421875-3.132813.953125-4.671875 1.511719-.796875.28125-1.542969.503906-2.292969.800781-7.320312 3.042969-13.90625 7.609375-19.328125 13.390625-1.636719 1.714844-3.160156 3.535156-4.5625 5.449219-.375.511718-.671875 1.070312-1.023437 1.597656-.992188 1.449219-1.960938 2.90625-2.800782 4.433594l-.125.207031-63.265625-63.199219c18.832031-12.03125 53.757813-13.199218 83.375 15.503906zm-60.695312 186.847657c-12-18.839844-13.207031-53.757813 15.496093-83.375.25-.296875.515626-.578125.800782-.839844 5.710937-5.769531 12.167968-10.746094 19.199218-14.800781.078126.320312.222657.617187.304688.945312.421875 1.597656.953125 3.132813 1.511719 4.671875.28125.796875.503906 1.542969.800781 2.292969 3.042969 7.320312 7.609375 13.90625 13.390625 19.328125 1.714844 1.636719 3.535156 3.160156 5.449219 4.5625.511718.375 1.070312.671875 1.597656 1.023437 1.449219.992188 2.90625 1.960938 4.433594 2.800782l.207031.125zm118.96875-38.175781c-.296875-.25-.578125-.515626-.839844-.800782-5.769531-5.710937-10.746094-12.167968-14.800781-19.199218.320312-.078126.617187-.222657.945312-.304688 1.597656-.421875 3.132813-.953125 4.671875-1.511719.796875-.28125 1.542969-.503906 2.292969-.800781 9.515625-4.015625 17.769531-10.527344 23.890625-18.847656.367187-.496094.664063-1.046875 1.007813-1.597656 1-1.457032 1.96875-2.921876 2.816406-4.457032l.125-.207031 63.265625 63.199219c-18.824219 12.070312-53.75 13.238281-83.375-15.472656zm60.695312-186.847657c12.039063 18.832031 13.257813 53.710938-15.097656 82.945313-.140625.132812-.261719.285156-.398437.429687-.25.296875-.515626.578125-.800782.839844-5.710937 5.769531-12.167968 10.746094-19.199218 14.800781-.078126-.320312-.222657-.617187-.304688-.945312-.421875-1.597656-.953125-3.132813-1.511719-4.671875-.28125-.796875-.503906-1.542969-.800781-2.292969-4.015625-9.515625-10.527344-17.769531-18.847656-23.890625-.496094-.367187-1.046875-.664063-1.597656-1.007813-1.457032-1-2.921876-1.96875-4.457032-2.816406l-.207031-.125zm0 0"/><path d="m56 240c0 101.621094 82.378906 184 184 184s184-82.378906 184-184-82.378906-184-184-184c-101.574219.109375-183.890625 82.425781-184 184zm352 0c0 92.785156-75.214844 168-168 168s-168-75.214844-168-168 75.214844-168 168-168c92.738281.105469 167.894531 75.261719 168 168zm0 0"/><path d="m48 72c13.253906 0 24-10.746094 24-24s-10.746094-24-24-24-24 10.746094-24 24 10.746094 24 24 24zm0-32c4.417969 0 8 3.582031 8 8s-3.582031 8-8 8-8-3.582031-8-8 3.582031-8 8-8zm0 0"/><path d="m432 24c-13.253906 0-24 10.746094-24 24s10.746094 24 24 24 24-10.746094 24-24-10.746094-24-24-24zm0 32c-4.417969 0-8-3.582031-8-8s3.582031-8 8-8 8 3.582031 8 8-3.582031 8-8 8zm0 0"/><path d="m432 408c-13.253906 0-24 10.746094-24 24s10.746094 24 24 24 24-10.746094 24-24-10.746094-24-24-24zm0 32c-4.417969 0-8-3.582031-8-8s3.582031-8 8-8 8 3.582031 8 8-3.582031 8-8 8zm0 0"/><path d="m48 408c-13.253906 0-24 10.746094-24 24s10.746094 24 24 24 24-10.746094 24-24-10.746094-24-24-24zm0 32c-4.417969 0-8-3.582031-8-8s3.582031-8 8-8 8 3.582031 8 8-3.582031 8-8 8zm0 0"/></svg>