<svg height="480pt" viewBox="0 -160 480 480" width="480pt" xmlns="http://www.w3.org/2000/svg"><path d="m464 0h-448c-8.835938 0-16 7.164062-16 16v128c0 8.835938 7.164062 16 16 16h448c8.835938 0 16-7.164062 16-16v-128c0-8.835938-7.164062-16-16-16zm-448 144v-128h448v128zm0 0"/><path d="m440 32h-400c-4.417969 0-8 3.582031-8 8v32c0 4.417969 3.582031 8 8 8h400c4.417969 0 8-3.582031 8-8v-32c0-4.417969-3.582031-8-8-8zm-8 32h-384v-16h384zm0 0"/><path d="m32 112h48v16h-48zm0 0"/><path d="m96 112h48v16h-48zm0 0"/><path d="m400 112h48v16h-48zm0 0"/></svg>