<svg height="480pt" viewBox="0 0 480 480" width="480pt" xmlns="http://www.w3.org/2000/svg"><path d="m240 0c-132.546875 0-240 107.453125-240 240s107.453125 240 240 240 240-107.453125 240-240c-.148438-132.484375-107.515625-239.851562-240-240zm0 464c-123.710938 0-224-100.289062-224-224s100.289062-224 224-224 224 100.289062 224 224c-.140625 123.652344-100.347656 223.859375-224 224zm0 0"/><path d="m280 240c0-22.089844-17.910156-40-40-40s-40 17.910156-40 40 17.910156 40 40 40c22.082031-.027344 39.972656-17.917969 40-40zm-64 0c0-13.253906 10.746094-24 24-24s24 10.746094 24 24-10.746094 24-24 24-24-10.746094-24-24zm0 0"/><path d="m320 240c0-44.183594-35.816406-80-80-80s-80 35.816406-80 80 35.816406 80 80 80c44.164062-.046875 79.953125-35.835938 80-80zm-144 0c0-35.347656 28.652344-64 64-64s64 28.652344 64 64-28.652344 64-64 64c-35.328125-.039062-63.960938-28.671875-64-64zm0 0"/><path d="m240 424v16c5.601562 0 11.199219-.230469 16.800781-.695312l-1.328125-15.945313c-5.144531.425781-10.335937.640625-15.472656.640625zm0 0"/><path d="m424 240c.304688 89.976562-64.738281 166.867188-153.519531 181.488281l2.625 15.785157c96.507812-15.882813 167.222656-99.464844 166.894531-197.273438zm0 0"/></svg>