<svg height="480pt" viewBox="-16 0 480 480" width="480pt" xmlns="http://www.w3.org/2000/svg"><path d="m320 368h-304c-8.835938 0-16 7.164062-16 16v80c0 8.835938 7.164062 16 16 16h304c8.835938 0 16-7.164062 16-16v-80c0-8.835938-7.164062-16-16-16zm0 96h-304v-80h304zm0 0"/><path d="m408 368c-22.082031.027344-39.972656 17.917969-40 40v32c0 22.089844 17.910156 40 40 40s40-17.910156 40-40v-32c-.027344-22.082031-17.917969-39.972656-40-40zm24 72c0 13.253906-10.746094 24-24 24s-24-10.746094-24-24v-32c0-13.253906 10.746094-24 24-24s24 10.746094 24 24zm0 0"/><path d="m400 400h16v16h-16zm0 0"/><path d="m32 440h272v16h-272zm0 0"/><path d="m32 416h16v16h-16zm0 0"/><path d="m64 416h16v16h-16zm0 0"/><path d="m96 416h16v16h-16zm0 0"/><path d="m128 416h16v16h-16zm0 0"/><path d="m160 416h16v16h-16zm0 0"/><path d="m192 416h16v16h-16zm0 0"/><path d="m224 416h16v16h-16zm0 0"/><path d="m256 416h16v16h-16zm0 0"/><path d="m288 416h16v16h-16zm0 0"/><path d="m32 392h16v16h-16zm0 0"/><path d="m64 392h16v16h-16zm0 0"/><path d="m96 392h16v16h-16zm0 0"/><path d="m128 392h16v16h-16zm0 0"/><path d="m160 392h16v16h-16zm0 0"/><path d="m192 392h16v16h-16zm0 0"/><path d="m224 392h16v16h-16zm0 0"/><path d="m256 392h16v16h-16zm0 0"/><path d="m288 392h16v16h-16zm0 0"/><path d="m384 232v-208c0-13.253906-10.746094-24-24-24h-320c-13.253906 0-24 10.746094-24 24v208c0 13.253906 10.746094 24 24 24h110.9375l-6 48h-16.9375v16h144v-16h-16.9375l-6-48h110.9375c13.253906 0 24-10.746094 24-24zm-145.0625 72h-77.875l6-48h65.875zm129.0625-72c0 4.417969-3.582031 8-8 8h-320c-4.417969 0-8-3.582031-8-8v-208c0-4.417969 3.582031-8 8-8h320c4.417969 0 8 3.582031 8 8zm0 0"/><path d="m352 24h-304c-4.417969 0-8 3.582031-8 8v192c0 4.417969 3.582031 8 8 8h304c4.417969 0 8-3.582031 8-8v-192c0-4.417969-3.582031-8-8-8zm-8 192h-288v-176h288zm0 0"/></svg>