<svg height="480pt" viewBox="0 -48 480 480" width="480pt" xmlns="http://www.w3.org/2000/svg"><path d="m456 0h-432c-13.253906 0-24 10.746094-24 24v336c0 13.253906 10.746094 24 24 24h432c13.253906 0 24-10.746094 24-24v-336c0-13.253906-10.746094-24-24-24zm8 360c0 4.417969-3.582031 8-8 8h-432c-4.417969 0-8-3.582031-8-8v-336c0-4.417969 3.582031-8 8-8h432c4.417969 0 8 3.582031 8 8zm0 0"/><path d="m416 48h-352c-8.835938 0-16 7.164062-16 16v176c0 8.835938 7.164062 16 16 16h72v64c0 8.835938 7.164062 16 16 16h176c8.835938 0 16-7.164062 16-16v-64h72c8.835938 0 16-7.164062 16-16v-176c0-8.835938-7.164062-16-16-16zm0 192h-80c-4.417969 0-8 3.582031-8 8v72h-176v-72c0-4.417969-3.582031-8-8-8h-80v-176h352zm0 0"/><path d="m424 288h-32c-4.417969 0-8 3.582031-8 8v32c0 4.417969 3.582031 8 8 8h32c4.417969 0 8-3.582031 8-8v-32c0-4.417969-3.582031-8-8-8zm-8 32h-16v-16h16zm0 0"/><path d="m88 288h-32c-4.417969 0-8 3.582031-8 8v32c0 4.417969 3.582031 8 8 8h32c4.417969 0 8-3.582031 8-8v-32c0-4.417969-3.582031-8-8-8zm-8 32h-16v-16h16zm0 0"/><path d="m224 160h32c4.417969 0 8-3.582031 8-8v-64c0-4.417969-3.582031-8-8-8h-32c-4.417969 0-8 3.582031-8 8v64c0 4.417969 3.582031 8 8 8zm8-64h16v48h-16zm0 0"/><path d="m320 160h32c4.417969 0 8-3.582031 8-8v-64c0-4.417969-3.582031-8-8-8h-32c-4.417969 0-8 3.582031-8 8v64c0 4.417969 3.582031 8 8 8zm8-64h16v48h-16zm0 0"/><path d="m128 160h32c4.417969 0 8-3.582031 8-8v-64c0-4.417969-3.582031-8-8-8h-32c-4.417969 0-8 3.582031-8 8v64c0 4.417969 3.582031 8 8 8zm8-64h16v48h-16zm0 0"/></svg>