<svg height="480pt" viewBox="0 0 480 480" width="480pt" xmlns="http://www.w3.org/2000/svg"><path d="m456 0h-432c-13.253906 0-24 10.746094-24 24v432c0 13.253906 10.746094 24 24 24h432c13.253906 0 24-10.746094 24-24v-432c0-13.253906-10.746094-24-24-24zm8 456c0 4.417969-3.582031 8-8 8h-432c-4.417969 0-8-3.582031-8-8v-432c0-4.417969 3.582031-8 8-8h432c4.417969 0 8 3.582031 8 8zm0 0"/><path d="m320 144h-160c-8.835938 0-16 7.164062-16 16v24h16v-24h160v24h16v-24c0-8.835938-7.164062-16-16-16zm0 0"/><path d="m400 312h40v-16h-40v-8c0-8.835938-7.164062-16-16-16h-16v-64h16c8.835938 0 16-7.164062 16-16v-8h40v-16h-40v-8c0-8.835938-7.164062-16-16-16h-16v-8c0-13.253906-10.746094-24-24-24h-8v-16c0-8.835938-7.164062-16-16-16h-8v-40h-16v40h-8c-8.835938 0-16 7.164062-16 16v16h-64v-16c0-8.835938-7.164062-16-16-16h-8v-40h-16v40h-8c-8.835938 0-16 7.164062-16 16v16h-8c-13.253906 0-24 10.746094-24 24v8h-16c-8.835938 0-16 7.164062-16 16v8h-40v16h40v8c0 8.835938 7.164062 16 16 16h16v64h-16c-8.835938 0-16 7.164062-16 16v8h-40v16h40v8c0 8.835938 7.164062 16 16 16h16v8c0 13.253906 10.746094 24 24 24h8v16c0 8.835938 7.164062 16 16 16h8v40h16v-40h8c8.835938 0 16-7.164062 16-16v-16h64v16c0 8.835938 7.164062 16 16 16h8v40h16v-40h8c8.835938 0 16-7.164062 16-16v-16h8c13.253906 0 24-10.746094 24-24v-8h16c8.835938 0 16-7.164062 16-16zm-16-152v32h-16v-32zm-96-64h32v16h-32zm-128 0h32v16h-32zm-64 96v-32h16v32zm0 128v-32h16v32zm96 64h-32v-16h32zm128 0h-32v-16h32zm32-40c0 4.417969-3.582031 8-8 8h-208c-4.417969 0-8-3.582031-8-8v-208c0-4.417969 3.582031-8 8-8h208c4.417969 0 8 3.582031 8 8zm32-24h-16v-32h16zm0 0"/><path d="m424 32c-13.253906 0-24 10.746094-24 24s10.746094 24 24 24 24-10.746094 24-24-10.746094-24-24-24zm0 32c-4.417969 0-8-3.582031-8-8s3.582031-8 8-8 8 3.582031 8 8-3.582031 8-8 8zm0 0"/><path d="m56 80c13.253906 0 24-10.746094 24-24s-10.746094-24-24-24-24 10.746094-24 24 10.746094 24 24 24zm0-32c4.417969 0 8 3.582031 8 8s-3.582031 8-8 8-8-3.582031-8-8 3.582031-8 8-8zm0 0"/><path d="m424 400c-13.253906 0-24 10.746094-24 24s10.746094 24 24 24 24-10.746094 24-24-10.746094-24-24-24zm0 32c-4.417969 0-8-3.582031-8-8s3.582031-8 8-8 8 3.582031 8 8-3.582031 8-8 8zm0 0"/><path d="m56 400c-13.253906 0-24 10.746094-24 24s10.746094 24 24 24 24-10.746094 24-24-10.746094-24-24-24zm0 32c-4.417969 0-8-3.582031-8-8s3.582031-8 8-8 8 3.582031 8 8-3.582031 8-8 8zm0 0"/></svg>