<svg height="480pt" viewBox="-88 0 480 480" width="480pt" xmlns="http://www.w3.org/2000/svg"><path d="m264 0h-224c-22.082031.0273438-39.9726562 17.917969-40 40v384c.0429688 10.132812 6.445312 19.148438 16 22.527344v25.472656c0 4.417969 3.582031 8 8 8h256c4.417969 0 8-3.582031 8-8v-25.472656c9.554688-3.378906 15.957031-12.394532 16-22.527344v-384c-.027344-22.082031-17.917969-39.9726562-40-40zm8 464h-240v-16h240zm16-40c0 4.417969-3.582031 8-8 8h-256c-4.417969 0-8-3.582031-8-8v-384c0-13.253906 10.746094-24 24-24h224c13.253906 0 24 10.746094 24 24zm0 0"/><path d="m264 72h-224c-4.417969 0-8 3.582031-8 8v48c0 4.417969 3.582031 8 8 8h224c4.417969 0 8-3.582031 8-8v-48c0-4.417969-3.582031-8-8-8zm-8 48h-208v-32h208zm0 0"/><path d="m264 152h-224c-4.417969 0-8 3.582031-8 8v48c0 4.417969 3.582031 8 8 8h224c4.417969 0 8-3.582031 8-8v-48c0-4.417969-3.582031-8-8-8zm-8 48h-208v-32h208zm0 0"/><path d="m264 232h-224c-4.417969 0-8 3.582031-8 8v48c0 4.417969 3.582031 8 8 8h224c4.417969 0 8-3.582031 8-8v-48c0-4.417969-3.582031-8-8-8zm-8 48h-208v-32h208zm0 0"/><path d="m64 48h32v8h16v-16c0-4.417969-3.582031-8-8-8h-48c-4.417969 0-8 3.582031-8 8v16h16zm0 0"/><path d="m200 48h32v8h16v-16c0-4.417969-3.582031-8-8-8h-48c-4.417969 0-8 3.582031-8 8v16h16zm0 0"/><path d="m152 312c-26.507812 0-48 21.492188-48 48s21.492188 48 48 48 48-21.492188 48-48c-.027344-26.5-21.5-47.972656-48-48zm0 80c-17.671875 0-32-14.328125-32-32s14.328125-32 32-32 32 14.328125 32 32-14.328125 32-32 32zm0 0"/></svg>