<svg height="480pt" viewBox="0 -28 480 480" width="480pt" xmlns="http://www.w3.org/2000/svg"><path d="m456 0h-432c-13.253906 0-24 10.746094-24 24v272c0 13.253906 10.746094 24 24 24h158.9375l-6 48h-8.9375c-1.578125.003906-3.125.46875-4.441406 1.34375l-24 16c-2.222656 1.484375-3.558594 3.980469-3.558594 6.65625v16h-16v16h240v-16h-16v-16c0-2.675781-1.335938-5.171875-3.558594-6.65625l-24-16c-1.316406-.875-2.863281-1.339844-4.441406-1.34375h-8.9375l-6-48h158.9375c13.253906 0 24-10.746094 24-24v-272c0-13.253906-10.746094-24-24-24zm-128 396.28125v11.71875h-176v-11.71875l18.398438-12.28125h139.203124zm-41.0625-28.28125h-93.875l6-48h81.875zm177.0625-72c0 4.417969-3.582031 8-8 8h-432c-4.417969 0-8-3.582031-8-8v-272c0-4.417969 3.582031-8 8-8h432c4.417969 0 8 3.582031 8 8zm0 0"/><path d="m448 24h-416c-4.417969 0-8 3.582031-8 8v256c0 4.417969 3.582031 8 8 8h416c4.417969 0 8-3.582031 8-8v-256c0-4.417969-3.582031-8-8-8zm-8 256h-400v-240h400zm0 0"/></svg>