<svg height="480pt" viewBox="0 0 480 480" width="480pt" xmlns="http://www.w3.org/2000/svg"><path d="m56 80c13.253906 0 24-10.746094 24-24s-10.746094-24-24-24-24 10.746094-24 24 10.746094 24 24 24zm0-32c4.417969 0 8 3.582031 8 8s-3.582031 8-8 8-8-3.582031-8-8 3.582031-8 8-8zm0 0"/><path d="m56 400c-13.253906 0-24 10.746094-24 24s10.746094 24 24 24 24-10.746094 24-24-10.746094-24-24-24zm0 32c-4.417969 0-8-3.582031-8-8s3.582031-8 8-8 8 3.582031 8 8-3.582031 8-8 8zm0 0"/><path d="m480 240c-.148438-89.578125-70.527344-163.292969-160-167.59375v-48.40625c0-13.253906-10.746094-24-24-24h-272c-13.253906 0-24 10.746094-24 24v432c0 13.253906 10.746094 24 24 24h272c13.253906 0 24-10.746094 24-24v-48.40625c89.472656-4.300781 159.851562-78.015625 160-167.59375zm-464 216v-432c0-4.417969 3.582031-8 8-8h216v448h-216c-4.417969 0-8-3.582031-8-8zm280 8h-40v-448h40c4.417969 0 8 3.582031 8 8v48.398438c-5.359375.257812-10.691406.765624-16 1.523437v-17.921875h-16v368h16v-17.921875c5.332031.757813 10.667969 1.265625 16 1.523437v48.398438c0 4.417969-3.582031 8-8 8zm16-72c-8.042969-.0625-16.066406-.757812-24-2.078125v-118.128906c6.882812 5.292969 15.316406 8.175781 24 8.207031 22.089844 0 40-17.910156 40-40s-17.910156-40-40-40c-8.683594.03125-17.117188 2.914062-24 8.207031v-118.128906c56.453125-9.058594 113.210938 14.34375 146.875 60.554687 33.660156 46.214844 38.527344 107.417969 12.585938 158.371094-25.9375 50.949219-78.285157 83.023438-135.460938 82.996094zm-24-152c0-13.253906 10.746094-24 24-24s24 10.746094 24 24-10.746094 24-24 24-24-10.746094-24-24zm0 0"/><path d="m312 104v16c66.242188.074219 119.925781 53.757812 120 120h16c-.082031-75.074219-60.925781-135.917969-136-136zm0 0"/></svg>