<svg height="480pt" viewBox="-31 0 479 480" width="480pt" xmlns="http://www.w3.org/2000/svg"><path d="m414.652344 98.878906-80-96c-1.519532-1.824218-3.777344-2.878906-6.152344-2.878906h-304c-2.121094 0-4.15625.84375-5.65625 2.34375l-16 16c-1.5 1.5-2.34375 3.535156-2.34375 5.65625v432c0 2.121094.84375 4.15625 2.34375 5.65625l16 16c1.5 1.5 3.535156 2.34375 5.65625 2.34375h368c2.121094 0 4.15625-.84375 5.65625-2.34375l16-16c1.5-1.5 2.34375-3.535156 2.34375-5.65625v-352c0-1.871094-.652344-3.683594-1.847656-5.121094zm-142.152344-82.878906v128h-208v-128zm128 436.6875-11.3125 11.3125h-361.375l-11.3125-11.3125v-425.375l11.3125-11.3125h20.6875v136c0 4.417969 3.582031 8 8 8h224c4.417969 0 8-3.582031 8-8v-136h36.246094l75.753906 90.894531zm0 0"/><path d="m216.5 128h32c4.417969 0 8-3.582031 8-8v-80c0-4.417969-3.582031-8-8-8h-32c-4.417969 0-8 3.582031-8 8v80c0 4.417969 3.582031 8 8 8zm8-80h16v64h-16zm0 0"/><path d="m48.5 256v160c0 8.835938 7.164062 16 16 16h288c8.835938 0 16-7.164062 16-16v-160c0-8.835938-7.164062-16-16-16h-288c-8.835938 0-16 7.164062-16 16zm304 160h-288v-160h288zm0 0"/><path d="m32.5 432h16v16h-16zm0 0"/><path d="m368.5 432h16v16h-16zm0 0"/></svg>