<svg height="480pt" viewBox="0 0 480 480" width="480pt" xmlns="http://www.w3.org/2000/svg"><path d="m456 0h-432c-13.253906 0-24 10.746094-24 24v432c0 13.253906 10.746094 24 24 24h432c13.253906 0 24-10.746094 24-24v-432c0-13.253906-10.746094-24-24-24zm8 456c0 4.417969-3.582031 8-8 8h-432c-4.417969 0-8-3.582031-8-8v-432c0-4.417969 3.582031-8 8-8h432c4.417969 0 8 3.582031 8 8zm0 0"/><path d="m424 48h-256c-4.417969 0-8 3.582031-8 8v32c0 4.417969 3.582031 8 8 8h256c4.417969 0 8-3.582031 8-8v-32c0-4.417969-3.582031-8-8-8zm-8 32h-240v-16h240zm0 0"/><path d="m424 112h-256c-4.417969 0-8 3.582031-8 8v32c0 4.417969 3.582031 8 8 8h256c4.417969 0 8-3.582031 8-8v-32c0-4.417969-3.582031-8-8-8zm-8 32h-240v-16h240zm0 0"/><path d="m424 176h-256c-4.417969 0-8 3.582031-8 8v32c0 4.417969 3.582031 8 8 8h256c4.417969 0 8-3.582031 8-8v-32c0-4.417969-3.582031-8-8-8zm-8 32h-240v-16h240zm0 0"/><path d="m408 256c-13.253906 0-24 10.746094-24 24s10.746094 24 24 24 24-10.746094 24-24-10.746094-24-24-24zm0 32c-4.417969 0-8-3.582031-8-8s3.582031-8 8-8 8 3.582031 8 8-3.582031 8-8 8zm0 0"/><path d="m408 320c-13.253906 0-24 10.746094-24 24s10.746094 24 24 24 24-10.746094 24-24-10.746094-24-24-24zm0 32c-4.417969 0-8-3.582031-8-8s3.582031-8 8-8 8 3.582031 8 8-3.582031 8-8 8zm0 0"/><path d="m408 384c-13.253906 0-24 10.746094-24 24s10.746094 24 24 24 24-10.746094 24-24-10.746094-24-24-24zm0 32c-4.417969 0-8-3.582031-8-8s3.582031-8 8-8 8 3.582031 8 8-3.582031 8-8 8zm0 0"/><path d="m352 256h-144c-8.835938 0-16 7.164062-16 16v144c0 8.835938 7.164062 16 16 16h144c8.835938 0 16-7.164062 16-16v-144c0-8.835938-7.164062-16-16-16zm0 160h-144v-144h144zm0 0"/><path d="m248 392h64c8.835938 0 16-7.164062 16-16v-64c0-8.835938-7.164062-16-16-16h-64c-8.835938 0-16 7.164062-16 16v64c0 8.835938 7.164062 16 16 16zm0-80h64v64h-64zm0 0"/><path d="m56 224h80c4.417969 0 8-3.582031 8-8v-80c0-4.417969-3.582031-8-8-8h-80c-4.417969 0-8 3.582031-8 8v80c0 4.417969 3.582031 8 8 8zm8-80h64v64h-64zm0 0"/><path d="m56 112h80c4.417969 0 8-3.582031 8-8v-48c0-4.417969-3.582031-8-8-8h-80c-4.417969 0-8 3.582031-8 8v48c0 4.417969 3.582031 8 8 8zm8-48h64v32h-64zm0 0"/><path d="m152 272h-96c-4.417969 0-8 3.582031-8 8v144c0 4.417969 3.582031 8 8 8h96c4.417969 0 8-3.582031 8-8v-144c0-4.417969-3.582031-8-8-8zm-40 64h32v32h-32zm-16 32h-32v-32h32zm48-80v32h-32v-32zm-80 0h32v32h-32zm0 96h32v32h-32zm80 32h-32v-32h32zm0 0"/></svg>