<svg height="480pt" viewBox="-48 0 480 480" width="480pt" xmlns="http://www.w3.org/2000/svg"><path d="m382.144531 98.871094-80-96c-1.519531-1.820313-3.773437-2.871094-6.144531-2.871094h-272c-2.121094 0-4.15625.84375-5.65625 2.34375l-16 16c-1.5 1.5-2.34375 3.535156-2.34375 5.65625v432c0 2.121094.84375 4.15625 2.34375 5.65625l16 16c1.5 1.5 3.535156 2.34375 5.65625 2.34375h336c2.121094 0 4.15625-.84375 5.65625-2.34375l16-16c1.5-1.5 2.34375-3.535156 2.34375-5.65625v-352c0-1.875-.65625-3.6875-1.855469-5.128906zm-14.144531 353.816406-11.3125 11.3125h-329.375l-11.3125-11.3125v-425.375l11.3125-11.3125h264.945312l75.742188 90.894531zm0 0"/><path d="m40 144h32c4.417969 0 8-3.582031 8-8v-96c0-4.417969-3.582031-8-8-8h-32c-4.417969 0-8 3.582031-8 8v96c0 4.417969 3.582031 8 8 8zm8-96h16v80h-16zm0 0"/><path d="m104 144h32c4.417969 0 8-3.582031 8-8v-96c0-4.417969-3.582031-8-8-8h-32c-4.417969 0-8 3.582031-8 8v96c0 4.417969 3.582031 8 8 8zm8-96h16v80h-16zm0 0"/><path d="m168 144h32c4.417969 0 8-3.582031 8-8v-96c0-4.417969-3.582031-8-8-8h-32c-4.417969 0-8 3.582031-8 8v96c0 4.417969 3.582031 8 8 8zm8-96h16v80h-16zm0 0"/><path d="m232 144h32c4.417969 0 8-3.582031 8-8v-96c0-4.417969-3.582031-8-8-8h-32c-4.417969 0-8 3.582031-8 8v96c0 4.417969 3.582031 8 8 8zm8-96h16v80h-16zm0 0"/><path d="m288 96v64c0 4.417969 3.582031 8 8 8h32c4.417969 0 8-3.582031 8-8v-64c0-4.417969-3.582031-8-8-8h-32c-4.417969 0-8 3.582031-8 8zm16 8h16v48h-16zm0 0"/><path d="m48 224c-8.835938 0-16 7.164062-16 16v160c0 8.835938 7.164062 16 16 16h288c8.835938 0 16-7.164062 16-16v-160c0-8.835938-7.164062-16-16-16zm0 176v-160h288v160zm0 0"/></svg>