<svg height="480pt" viewBox="0 -24 480 480" width="480pt" xmlns="http://www.w3.org/2000/svg"><path d="m456 0h-432c-13.253906 0-24 10.746094-24 24v272c0 13.253906 10.746094 24 24 24h152v48h-8c-2.121094 0-4.15625.84375-5.65625 2.34375l-24 24c-1.5 1.5-2.34375 3.535156-2.34375 5.65625v24c0 4.417969 3.582031 8 8 8h192c4.417969 0 8-3.582031 8-8v-24c0-2.121094-.84375-4.15625-2.34375-5.65625l-24-24c-1.5-1.5-3.535156-2.34375-5.65625-2.34375h-8v-48h152c13.253906 0 24-10.746094 24-24v-272c0-13.253906-10.746094-24-24-24zm-432 16h432c4.417969 0 8 3.582031 8 8v232h-448v-232c0-4.417969 3.582031-8 8-8zm304 387.3125v12.6875h-176v-12.6875l19.3125-19.3125h137.375zm-40-35.3125h-96v-48h96zm168-64h-432c-4.417969 0-8-3.582031-8-8v-24h448v24c0 4.417969-3.582031 8-8 8zm0 0"/><path d="m232 280h16v16h-16zm0 0"/></svg>