<svg height="480pt" viewBox="0 -40 480 480" width="480pt" xmlns="http://www.w3.org/2000/svg"><path d="m440 0h-400c-22.082031.0273438-39.9726562 17.917969-40 40v320c.0273438 22.082031 17.917969 39.972656 40 40h400c22.082031-.027344 39.972656-17.917969 40-40v-320c-.027344-22.082031-17.917969-39.9726562-40-40zm24 360c0 13.253906-10.746094 24-24 24h-400c-13.253906 0-24-10.746094-24-24v-320c0-13.253906 10.746094-24 24-24h400c13.253906 0 24 10.746094 24 24zm0 0"/><path d="m440 120h-112c-4.417969 0-8 3.582031-8 8v32c0 4.417969 3.582031 8 8 8h112c4.417969 0 8-3.582031 8-8v-32c0-4.417969-3.582031-8-8-8zm-104 16h40v16h-40zm96 16h-40v-16h40zm0 0"/><path d="m176 80.40625v-16.40625h-16v16.40625c-59.867188 4.066406-107.527344 51.726562-111.59375 111.59375h-16.40625v16h16.40625c4.066406 59.867188 51.726562 107.527344 111.59375 111.59375v16.40625h16v-16.40625c59.867188-4.066406 107.527344-51.726562 111.59375-111.59375h16.40625v-16h-16.40625c-4.066406-59.867188-51.726562-107.527344-111.59375-111.59375zm95.59375 111.59375h-40.144531c-3.691407-28.957031-26.492188-51.757812-55.449219-55.449219v-40.144531c51.050781 3.988281 91.605469 44.542969 95.59375 95.59375zm-111.59375 0h-39.28125c3.4375-20.101562 19.179688-35.84375 39.28125-39.28125zm0 16v39.28125c-20.101562-3.4375-35.84375-19.179688-39.28125-39.28125zm16 0h39.28125c-3.4375 20.101562-19.179688 35.84375-39.28125 39.28125zm0-16v-39.28125c20.101562 3.4375 35.84375 19.179688 39.28125 39.28125zm-16-95.59375v40.144531c-28.957031 3.691407-51.757812 26.492188-55.449219 55.449219h-40.144531c3.988281-51.050781 44.542969-91.605469 95.59375-95.59375zm-95.59375 111.59375h40.144531c3.691407 28.957031 26.492188 51.757812 55.449219 55.449219v40.144531c-51.050781-3.988281-91.605469-44.542969-95.59375-95.59375zm111.59375 95.59375v-40.144531c28.957031-3.691407 51.757812-26.492188 55.449219-55.449219h40.144531c-3.988281 51.050781-44.542969 91.605469-95.59375 95.59375zm0 0"/><path d="m422.398438 211.199219c-1.507813-2.011719-3.878907-3.199219-6.398438-3.199219h-64c-2.519531 0-4.890625 1.1875-6.398438 3.199219l-24 32c-1.039062 1.386719-1.601562 3.070312-1.601562 4.800781v56c0 8.835938 7.164062 16 16 16h96c8.835938 0 16-7.164062 16-16v-56c0-1.730469-.5625-3.414062-1.601562-4.800781zm9.601562 92.800781h-96v-53.335938l20-26.664062h56l20 26.664062zm0 0"/><path d="m376 240h16v16h-16zm0 0"/><path d="m352 272h16v16h-16zm0 0"/><path d="m400 272h16v16h-16zm0 0"/></svg>