<svg height="480pt" viewBox="0 0 480 480" width="480pt" xmlns="http://www.w3.org/2000/svg"><path d="m456 160h-40v-72c0-4.417969-3.582031-8-8-8h-24v-72c0-4.417969-3.582031-8-8-8h-272c-4.417969 0-8 3.582031-8 8v72h-24c-4.417969 0-8 3.582031-8 8v72h-40c-13.253906 0-24 10.746094-24 24v192c0 13.253906 10.746094 24 24 24h40v40c0 4.417969 3.582031 8 8 8h24v24c0 4.417969 3.582031 8 8 8h272c4.417969 0 8-3.582031 8-8v-24h24c4.417969 0 8-3.582031 8-8v-40h40c13.253906 0 24-10.746094 24-24v-192c0-13.253906-10.746094-24-24-24zm-56-64v64h-16v-64zm-288-80h256v144h-256zm-32 80h16v64h-16zm0 336v-32h16v32zm288 32h-256v-128h256zm32-32h-16v-32h16zm64-56c0 4.417969-3.582031 8-8 8h-72v-48h16v-16h-320v16h16v48h-72c-4.417969 0-8-3.582031-8-8v-192c0-4.417969 3.582031-8 8-8h432c4.417969 0 8 3.582031 8 8zm0 0"/><path d="m136 192h-80c-4.417969 0-8 3.582031-8 8v80c0 4.417969 3.582031 8 8 8h80c4.417969 0 8-3.582031 8-8v-80c0-4.417969-3.582031-8-8-8zm-8 80h-64v-64h64zm0 0"/><path d="m424 192h-144c-4.417969 0-8 3.582031-8 8v48c0 4.417969 3.582031 8 8 8h144c4.417969 0 8-3.582031 8-8v-48c0-4.417969-3.582031-8-8-8zm-8 48h-128v-32h128zm0 0"/><path d="m144 416h192v16h-192zm0 0"/><path d="m144 368h192v16h-192zm0 0"/></svg>