<svg height="480pt" viewBox="-16 0 480 480" width="480pt" xmlns="http://www.w3.org/2000/svg"><path d="m192 16h-16c0-8.835938-7.164062-16-16-16h-144c-8.835938 0-16 7.164062-16 16v448c0 8.835938 7.164062 16 16 16h144c8.835938 0 16-7.164062 16-16h16c8.835938 0 16-7.164062 16-16v-416c0-8.835938-7.164062-16-16-16zm-66.246094 0-4 16h-67.507812l-4-16zm-75.507812 448 4-16h67.507812l4 16zm92 0-6.484375-25.945312c-.894531-3.558594-4.09375-6.054688-7.761719-6.054688h-80c-3.667969 0-6.867188 2.496094-7.761719 6.054688l-6.484375 25.945312h-17.753906v-448h17.753906l6.484375 25.945312c.894531 3.558594 4.09375 6.054688 7.761719 6.054688h80c3.667969 0 6.867188-2.496094 7.761719-6.054688l6.484375-25.945312h17.753906v448zm33.753906-16v-416h16v416zm0 0"/><path d="m128 96h-80c-4.417969 0-8 3.582031-8 8v32c0 4.417969 3.582031 8 8 8h80c4.417969 0 8-3.582031 8-8v-32c0-4.417969-3.582031-8-8-8zm-8 32h-64v-16h64zm0 0"/><path d="m128 176h-80c-4.417969 0-8 3.582031-8 8v32c0 4.417969 3.582031 8 8 8h80c4.417969 0 8-3.582031 8-8v-32c0-4.417969-3.582031-8-8-8zm-8 32h-64v-16h64zm0 0"/><path d="m128 336h-80c-4.417969 0-8 3.582031-8 8v32c0 4.417969 3.582031 8 8 8h80c4.417969 0 8-3.582031 8-8v-32c0-4.417969-3.582031-8-8-8zm-8 32h-64v-16h64zm0 0"/><path d="m128 256h-80c-4.417969 0-8 3.582031-8 8v32c0 4.417969 3.582031 8 8 8h80c4.417969 0 8-3.582031 8-8v-32c0-4.417969-3.582031-8-8-8zm-8 32h-64v-16h64zm0 0"/><path d="m432 16h-16c0-8.835938-7.164062-16-16-16h-144c-8.835938 0-16 7.164062-16 16v448c0 8.835938 7.164062 16 16 16h144c8.835938 0 16-7.164062 16-16h16c8.835938 0 16-7.164062 16-16v-416c0-8.835938-7.164062-16-16-16zm-66.246094 0-4 16h-67.507812l-4-16zm-75.507812 448 4-16h67.507812l4 16zm92 0-6.484375-25.945312c-.894531-3.558594-4.09375-6.054688-7.761719-6.054688h-80c-3.667969 0-6.867188 2.496094-7.761719 6.054688l-6.484375 25.945312h-17.753906v-448h17.753906l6.484375 25.945312c.894531 3.558594 4.09375 6.054688 7.761719 6.054688h80c3.667969 0 6.867188-2.496094 7.761719-6.054688l6.484375-25.945312h17.753906v448zm33.753906-16v-416h16v416zm0 0"/><path d="m368 96h-80c-4.417969 0-8 3.582031-8 8v32c0 4.417969 3.582031 8 8 8h80c4.417969 0 8-3.582031 8-8v-32c0-4.417969-3.582031-8-8-8zm-8 32h-64v-16h64zm0 0"/><path d="m368 176h-80c-4.417969 0-8 3.582031-8 8v32c0 4.417969 3.582031 8 8 8h80c4.417969 0 8-3.582031 8-8v-32c0-4.417969-3.582031-8-8-8zm-8 32h-64v-16h64zm0 0"/><path d="m368 336h-80c-4.417969 0-8 3.582031-8 8v32c0 4.417969 3.582031 8 8 8h80c4.417969 0 8-3.582031 8-8v-32c0-4.417969-3.582031-8-8-8zm-8 32h-64v-16h64zm0 0"/><path d="m368 256h-80c-4.417969 0-8 3.582031-8 8v32c0 4.417969 3.582031 8 8 8h80c4.417969 0 8-3.582031 8-8v-32c0-4.417969-3.582031-8-8-8zm-8 32h-64v-16h64zm0 0"/></svg>