<svg height="480pt" viewBox="0 -52 480 480" width="480pt" xmlns="http://www.w3.org/2000/svg"><path d="m456 224h-16v-200c0-13.253906-10.746094-24-24-24s-24 10.746094-24 24v200h-304v-200c0-13.253906-10.746094-24-24-24s-24 10.746094-24 24v200h-16c-13.253906 0-24 10.746094-24 24v88c0 8.835938 7.164062 16 16 16h16v16c0 4.417969 3.582031 8 8 8h48c4.417969 0 8-3.582031 8-8v-16h288v16c0 4.417969 3.582031 8 8 8h48c4.417969 0 8-3.582031 8-8v-16h16c8.835938 0 16-7.164062 16-16v-88c0-13.253906-10.746094-24-24-24zm-48-200c0-4.417969 3.582031-8 8-8s8 3.582031 8 8v200h-16zm-352 0c0-4.417969 3.582031-8 8-8s8 3.582031 8 8v200h-16zm24 336h-32v-8h32zm352 0h-32v-8h32zm-416-24v-88c0-4.417969 3.582031-8 8-8h432c4.417969 0 8 3.582031 8 8v88zm0 0"/><path d="m272 256h-64c-4.417969 0-8 3.582031-8 8v32c0 2.121094.84375 4.15625 2.34375 5.65625l16 16c1.5 1.5 3.535156 2.34375 5.65625 2.34375h32c2.121094 0 4.15625-.84375 5.65625-2.34375l16-16c1.5-1.5 2.34375-3.535156 2.34375-5.65625v-32c0-4.417969-3.582031-8-8-8zm-8 36.6875-11.3125 11.3125h-25.375l-11.3125-11.3125v-20.6875h48zm0 0"/><path d="m384 256h-64c-4.417969 0-8 3.582031-8 8v32c0 2.121094.84375 4.15625 2.34375 5.65625l16 16c1.5 1.5 3.535156 2.34375 5.65625 2.34375h32c2.121094 0 4.15625-.84375 5.65625-2.34375l16-16c1.5-1.5 2.34375-3.535156 2.34375-5.65625v-32c0-4.417969-3.582031-8-8-8zm-8 36.6875-11.3125 11.3125h-25.375l-11.3125-11.3125v-20.6875h48zm0 0"/><path d="m160 256h-64c-4.417969 0-8 3.582031-8 8v32c0 2.121094.84375 4.15625 2.34375 5.65625l16 16c1.5 1.5 3.535156 2.34375 5.65625 2.34375h32c2.121094 0 4.15625-.84375 5.65625-2.34375l16-16c1.5-1.5 2.34375-3.535156 2.34375-5.65625v-32c0-4.417969-3.582031-8-8-8zm-8 36.6875-11.3125 11.3125h-25.375l-11.3125-11.3125v-20.6875h48zm0 0"/></svg>