<svg height="472pt" viewBox="-33 0 472 472.50636" width="472pt" xmlns="http://www.w3.org/2000/svg"><path d="m394.878906 95.800781-355.425781-95.246093c-4.105469-1.109376-8.480469-.539063-12.164063 1.582031-3.683593 2.121093-6.371093 5.621093-7.46875 9.730469l-6.207031 23.199218c-1.144531 4.269532 1.386719 8.65625 5.65625 9.800782l312.183594 83.640624h-323.199219c-4.417968 0-8 3.582032-8 8v288c0 8.835938 7.164063 16 16 16h8v24c0 4.417969 3.582032 8 8 8h336c4.417969 0 8-3.582031 8-8v-24h8c8.835938 0 16-7.164062 16-16v-286.953124l5.933594-22.167969c2.28125-8.53125-2.78125-17.296875-11.308594-19.585938zm-359.609375-79.789062 355.472657 95.246093-4.144532 15.449219-355.464844-95.242187zm324.984375 440.496093h-320v-16h320zm-344-32v-280h368v280zm0 0"/><path d="m176.253906 184.507812h-112c-8.835937 0-16 7.160157-16 16v112c0 8.835938 7.164063 16 16 16h112c8.835938 0 16-7.164062 16-16v-112c0-8.839843-7.164062-16-16-16zm-112 128v-112h112v112zm0 0"/><path d="m80.253906 216.507812h16v16h-16zm0 0"/><path d="m112.253906 216.507812h16v16h-16zm0 0"/><path d="m144.253906 216.507812h16v16h-16zm0 0"/><path d="m80.253906 248.507812h16v16h-16zm0 0"/><path d="m112.253906 248.507812h16v16h-16zm0 0"/><path d="m144.253906 248.507812h16v16h-16zm0 0"/><path d="m80.253906 280.507812h16v16h-16zm0 0"/><path d="m112.253906 280.507812h16v16h-16zm0 0"/><path d="m144.253906 280.507812h16v16h-16zm0 0"/><path d="m344.253906 184.507812h-112c-4.417968 0-8 3.582032-8 8v48c0 4.417969 3.582032 8 8 8h112c4.417969 0 8-3.582031 8-8v-48c0-4.417968-3.582031-8-8-8zm-8 48h-96v-32h96zm0 0"/><path d="m304.253906 208.507812h16v16h-16zm0 0"/><path d="m272.253906 208.507812h16v16h-16zm0 0"/><path d="m344.253906 264.507812h-112c-4.417968 0-8 3.582032-8 8v48c0 4.417969 3.582032 8 8 8h112c4.417969 0 8-3.582031 8-8v-48c0-4.417968-3.582031-8-8-8zm-8 48h-96v-32h96zm0 0"/></svg>