<svg height="480pt" viewBox="0 -144 480 480" width="480pt" xmlns="http://www.w3.org/2000/svg"><path d="m456 0h-432c-13.253906 0-24 10.746094-24 24v144c0 13.253906 10.746094 24 24 24h432c13.253906 0 24-10.746094 24-24v-144c0-13.253906-10.746094-24-24-24zm8 168c0 4.417969-3.582031 8-8 8h-432c-4.417969 0-8-3.582031-8-8v-144c0-4.417969 3.582031-8 8-8h432c4.417969 0 8 3.582031 8 8zm0 0"/><path d="m384 32c-35.347656 0-64 28.652344-64 64s28.652344 64 64 64 64-28.652344 64-64c-.039062-35.328125-28.671875-63.960938-64-64zm0 112c-26.507812 0-48-21.492188-48-48s21.492188-48 48-48 48 21.492188 48 48c-.027344 26.5-21.5 47.972656-48 48zm0 0"/><path d="m288 32h-240c-8.835938 0-16 7.164062-16 16v96c0 8.835938 7.164062 16 16 16h240c8.835938 0 16-7.164062 16-16v-96c0-8.835938-7.164062-16-16-16zm-240 112v-96h240v96zm0 0"/><path d="m264 56h-32c-4.417969 0-8 3.582031-8 8v64c0 4.417969 3.582031 8 8 8h32c4.417969 0 8-3.582031 8-8v-64c0-4.417969-3.582031-8-8-8zm-8 64h-16v-48h16zm0 0"/><path d="m200 56h-32c-4.417969 0-8 3.582031-8 8v64c0 4.417969 3.582031 8 8 8h32c4.417969 0 8-3.582031 8-8v-64c0-4.417969-3.582031-8-8-8zm-8 64h-16v-48h16zm0 0"/><path d="m136 56h-32c-4.417969 0-8 3.582031-8 8v64c0 4.417969 3.582031 8 8 8h32c4.417969 0 8-3.582031 8-8v-64c0-4.417969-3.582031-8-8-8zm-8 64h-16v-48h16zm0 0"/></svg>