<svg height="480pt" viewBox="-63 0 479 480" width="480pt" xmlns="http://www.w3.org/2000/svg"><path d="m328.5 0h-304c-13.253906 0-24 10.746094-24 24v432c0 13.253906 10.746094 24 24 24h304c13.253906 0 24-10.746094 24-24v-432c0-13.253906-10.746094-24-24-24zm-304 16h304c4.417969 0 8 3.582031 8 8v392h-320v-392c0-4.417969 3.582031-8 8-8zm312 440c0 4.417969-3.582031 8-8 8h-304c-4.417969 0-8-3.582031-8-8v-24h320zm0 0"/><path d="m48.5 48h256v8h16v-16c0-4.417969-3.582031-8-8-8h-272c-4.417969 0-8 3.582031-8 8v16h16zm0 0"/><path d="m40.5 400h272c4.417969 0 8-3.582031 8-8v-16h-16v8h-256v-8h-16v16c0 4.417969 3.582031 8 8 8zm0 0"/><path d="m128.5 176v-16c0-4.417969-3.582031-8-8-8h-48c-4.417969 0-8 3.582031-8 8v64c0 4.417969 3.582031 8 8 8h40v48h-32v-8h-16v16c0 4.417969 3.582031 8 8 8h48c4.417969 0 8-3.582031 8-8v-64c0-4.417969-3.582031-8-8-8h-40v-48h32v8zm0 0"/><path d="m208.5 176v-16c0-4.417969-3.582031-8-8-8h-48c-4.417969 0-8 3.582031-8 8v64c0 4.417969 3.582031 8 8 8h40v48h-32v-8h-16v16c0 4.417969 3.582031 8 8 8h48c4.417969 0 8-3.582031 8-8v-64c0-4.417969-3.582031-8-8-8h-40v-48h32v8zm0 0"/><path d="m232.5 152c-4.417969 0-8 3.582031-8 8v128c0 4.417969 3.582031 8 8 8h32c13.253906 0 24-10.746094 24-24v-96c0-13.253906-10.746094-24-24-24zm40 24v96c0 4.417969-3.582031 8-8 8h-24v-112h24c4.417969 0 8 3.582031 8 8zm0 0"/></svg>