<svg height="480pt" viewBox="-135 0 479 480" width="480pt" xmlns="http://www.w3.org/2000/svg"><path d="m72.5 32h16v16h-16zm0 0"/><path d="m120.5 32h16v16h-16zm0 0"/><path d="m96.5 64h16v16h-16zm0 0"/><path d="m192.5 96h-24v-88c0-4.417969-3.582031-8-8-8h-112c-4.417969 0-8 3.582031-8 8v88h-24c-8.835938 0-16 7.164062-16 16v328c.027344 22.082031 17.917969 39.972656 40 40h128c22.082031-.027344 39.972656-17.917969 40-40v-328c0-8.835938-7.164062-16-16-16zm0 288h-176v-32h176zm-176-48v-112h176v112zm0-144h176v16h-176zm40-176h96v80h-96zm136 96v64h-176v-64zm-24 352h-128c-13.253906 0-24-10.746094-24-24v-40h176v40c0 13.253906-10.746094 24-24 24zm0 0"/></svg>