<svg height="480pt" viewBox="-96 0 480 480" width="480pt" xmlns="http://www.w3.org/2000/svg"><path d="m144 144c-61.855469 0-112 50.144531-112 112s50.144531 112 112 112 112-50.144531 112-112c-.066406-61.828125-50.171875-111.933594-112-112zm0 208c-53.019531 0-96-42.980469-96-96s42.980469-96 96-96 96 42.980469 96 96c-.058594 52.996094-43.003906 95.941406-96 96zm0 0"/><path d="m128 32h-32c-4.417969 0-8 3.582031-8 8v24h16v-16h16v16h16v-24c0-4.417969-3.582031-8-8-8zm0 0"/><path d="m192 32h-32c-4.417969 0-8 3.582031-8 8v24h16v-16h16v16h16v-24c0-4.417969-3.582031-8-8-8zm0 0"/><path d="m264 176.472656v-80.472656c0-8.835938-7.164062-16-16-16h-16v-72c0-4.417969-3.582031-8-8-8h-160c-4.417969 0-8 3.582031-8 8v72h-16c-8.835938 0-16 7.164062-16 16v80.472656c-32 48.191406-32 110.863282 0 159.054688v104.472656c.027344 22.082031 17.917969 39.972656 40 40h160c22.078125-.027344 39.972656-17.917969 40-40v-104.472656c32-48.191406 32-110.863282 0-159.054688zm-192-160.472656h144v64h-144zm177.414062 312.527344c-.921874 1.335937-1.414062 2.921875-1.414062 4.542968v106.929688c0 13.253906-10.746094 24-24 24h-8v-40h-16v40h-16v-40h-16v40h-16v-40h-16v40h-16v-40h-16v40h-16v-40h-16v40h-8c-13.253906 0-24-10.746094-24-24v-106.929688c0-1.621093-.496094-3.207031-1.417969-4.542968-30.109375-43.664063-30.109375-101.390625 0-145.054688.921875-1.335937 1.417969-2.921875 1.417969-4.542968v-82.929688h208v82.929688c0 1.621093.492188 3.207031 1.414062 4.542968 30.113282 43.664063 30.113282 101.390625 0 145.054688zm0 0"/></svg>