<svg height="480pt" viewBox="-88 0 480 480" width="480pt" xmlns="http://www.w3.org/2000/svg"><path d="m264 0h-224c-22.082031.0273438-39.9726562 17.917969-40 40v392c0 8.835938 7.164062 16 16 16h16v24c0 4.417969 3.582031 8 8 8h48c4.417969 0 8-3.582031 8-8v-24h112v24c0 4.417969 3.582031 8 8 8h48c4.417969 0 8-3.582031 8-8v-24h16c8.835938 0 16-7.164062 16-16v-392c-.027344-22.082031-17.917969-39.9726562-40-40zm-40 16v176h-144v-176zm-144 448h-32v-16h32zm144-32h-144v-120c0-13.253906 10.746094-24 24-24h96c13.253906 0 24 10.746094 24 24zm32 32h-32v-16h32zm-16-32v-120c-.027344-22.082031-17.917969-39.972656-40-40h-96c-22.082031.027344-39.972656 17.917969-40 40v120h-48v-392c0-13.253906 10.746094-24 24-24h24v176c0 8.835938 7.164062 16 16 16h144c8.835938 0 16-7.164062 16-16v-176h24c13.253906 0 24 10.746094 24 24v392zm0 0"/><path d="m152 176c30.929688 0 56-25.070312 56-56s-25.070312-56-56-56-56 25.070312-56 56c.039062 30.910156 25.089844 55.960938 56 56zm0-96c22.089844 0 40 17.910156 40 40s-17.910156 40-40 40-40-17.910156-40-40c.027344-22.082031 17.917969-39.972656 40-40zm0 0"/><path d="m171.199219 316-6.398438 14.65625c13.886719 6.0625 21.621094 21.03125 18.523438 35.867188-3.09375 14.832031-16.171875 25.460937-31.324219 25.460937s-28.230469-10.628906-31.324219-25.460937c-3.097656-14.835938 4.636719-29.804688 18.523438-35.867188l-6.398438-14.65625c-20.832031 9.09375-32.433593 31.550781-27.789062 53.800781s24.257812 38.191407 46.988281 38.191407 42.34375-15.941407 46.988281-38.191407-6.957031-44.707031-27.789062-53.800781zm0 0"/><path d="m144 312h16v48h-16zm0 0"/></svg>