<svg height="480pt" viewBox="-31 0 479 480" width="480pt" xmlns="http://www.w3.org/2000/svg"><path d="m48.5 24h32v16h-32zm0 0"/><path d="m376.5 320v-136c0-48.601562-39.398438-88-88-88s-88 39.398438-88 88v224c-.035156 30.914062-25.085938 55.964844-56 56h-16c-30.914062-.035156-55.964844-25.085938-56-56v-184h16c22.082031-.027344 39.972656-17.917969 40-40v-128c0-4.417969-3.582031-8-8-8h-16v-40c0-4.417969-3.582031-8-8-8h-64c-4.417969 0-8 3.582031-8 8v40h-16c-4.417969 0-8 3.582031-8 8v128c.027344 22.082031 17.917969 39.972656 40 40h16v184c.042969 39.746094 32.253906 71.957031 72 72h16c39.746094-.042969 71.957031-32.253906 72-72v-224c0-39.765625 32.234375-72 72-72s72 32.234375 72 72v136c-22.082031.027344-39.972656 17.917969-40 40v80c0 4.417969 3.582031 8 8 8h8v24c0 4.417969 3.582031 8 8 8h48c4.417969 0 8-3.582031 8-8v-24h8c4.417969 0 8-3.582031 8-8v-80c-.027344-22.082031-17.917969-39.972656-40-40zm-336-304h48v32h-48zm-24 168v-120h96v120c0 13.253906-10.746094 24-24 24h-48c-13.253906 0-24-10.746094-24-24zm368 280h-32v-16h32zm16-32h-64v-72c0-13.253906 10.746094-24 24-24h16c13.253906 0 24 10.746094 24 24zm0 0"/></svg>