<svg height="480pt" viewBox="0 0 480 480" width="480pt" xmlns="http://www.w3.org/2000/svg"><path d="m440 192h-176v-24c0-4.417969-3.582031-8-8-8h-8v-104c0-22.089844 17.910156-40 40-40s40 17.910156 40 40v24c0 30.929688 25.070312 56 56 56s56-25.070312 56-56v-80h-16v80c0 22.089844-17.910156 40-40 40s-40-17.910156-40-40v-24c0-30.929688-25.070312-56-56-56s-56 25.070312-56 56v104h-8c-4.417969 0-8 3.582031-8 8v24h-176c-22.082031.027344-39.9726562 17.917969-40 40v208c.0273438 22.082031 17.917969 39.972656 40 40h400c22.082031-.027344 39.972656-17.917969 40-40v-208c-.027344-22.082031-17.917969-39.972656-40-40zm-208-16h16v16h-16zm232 264c0 13.253906-10.746094 24-24 24h-400c-13.253906 0-24-10.746094-24-24v-208c0-13.253906 10.746094-24 24-24h400c13.253906 0 24 10.746094 24 24zm0 0"/><path d="m264 240h-48c-8.835938 0-16 7.164062-16 16v160c0 8.835938 7.164062 16 16 16h48c8.835938 0 16-7.164062 16-16v-160c0-8.835938-7.164062-16-16-16zm-48 176v-160h48v160zm0 0"/><path d="m224 272h16v128h-16zm0 0"/><path d="m392 240h-48c-8.835938 0-16 7.164062-16 16v160c0 8.835938 7.164062 16 16 16h48c8.835938 0 16-7.164062 16-16v-160c0-8.835938-7.164062-16-16-16zm-48 176v-160h48v160zm0 0"/><path d="m352 272h16v128h-16zm0 0"/><path d="m136 240h-48c-8.835938 0-16 7.164062-16 16v160c0 8.835938 7.164062 16 16 16h48c8.835938 0 16-7.164062 16-16v-160c0-8.835938-7.164062-16-16-16zm0 176h-48v-160h48zm0 0"/><path d="m96 272h16v128h-16zm0 0"/></svg>