<svg height="480pt" viewBox="0 0 480 480.01576" width="480pt" xmlns="http://www.w3.org/2000/svg"><path d="m464.011719 336.015625h-352c-8.839844 0-16 7.164063-16 16v24h-16v-124.222656c-.003907-3.722657-.871094-7.394531-2.53125-10.730469l-13.46875-26.933594v-189.257812c.148437-11.941406-8.273438-22.273438-20-24.535156-6.96875-1.179688-14.101563.773437-19.5 5.339843-5.394531 4.5625-8.507813 11.273438-8.5 18.339844v190.113281l-13.472657 26.933594c-1.660156 3.335938-2.5273432 7.007812-2.5273432 10.730469v186.847656c-.2187498 20.921875 15.3320312 38.664063 36.1015622 41.191406 1.273438.121094 2.542969.183594 3.816407.183594 10.621093.019531 20.816406-4.183594 28.335937-11.6875s11.746094-17.691406 11.746094-28.3125v-16h16v8c0 8.835937 7.160156 16 16 16v24c0 4.417969 3.582031 8 8 8h336c4.417969 0 8-3.582031 8-8v-24c8.835937 0 16-7.164063 16-16v-80c0-8.835937-7.164063-16-16-16zm-392 72c-4.417969 0-8 3.582031-8 8v24c0 6.785156-2.867188 13.253906-7.898438 17.804687-5.03125 4.550782-11.753906 6.761719-18.503906 6.082032-12.578125-1.699219-21.875-12.570313-21.597656-25.261719v-186.847656c-.003907-1.242188.285156-2.464844.839843-3.578125l14.359376-28.625c.539062-1.113282.8125-2.335938.800781-3.574219v-192c-.003907-2.351563 1.03125-4.582031 2.824219-6.105469 1.441406-1.230468 3.277343-1.902344 5.175781-1.894531.46875 0 .9375.039063 1.398437.121094 3.996094.976562 6.75 4.625 6.601563 8.734375v191.144531c-.003907 1.242187.285156 2.464844.839843 3.574219l14.359376 28.625c.554687 1.113281.839843 2.335937.839843 3.578125v132.222656c0 4.417969 3.582031 8 8 8h24v16zm376 56h-24v-8h-16v8h-16v-8h-16v8h-16v-8h-16v8h-16v-8h-16v8h-16v-8h-16v8h-16v-8h-16v8h-16v-8h-16v8h-16v-8h-16v8h-16v-8h-16v8h-24v-16h320zm-336-32v-80h352v80zm0 0"/><path d="m200.011719 368.015625h-64c-4.417969 0-8 3.582031-8 8v32c0 4.417969 3.582031 8 8 8h64c4.417969 0 8-3.582031 8-8v-32c0-4.417969-3.582031-8-8-8zm-8 32h-48v-16h48zm0 0"/><path d="m296.011719 368.015625h-64c-4.417969 0-8 3.582031-8 8v32c0 4.417969 3.582031 8 8 8h64c4.417969 0 8-3.582031 8-8v-32c0-4.417969-3.582031-8-8-8zm-8 32h-48v-16h48zm0 0"/><path d="m424.011719 368.015625h-80c-4.417969 0-8 3.582031-8 8v32c0 4.417969 3.582031 8 8 8h80c4.417969 0 8-3.582031 8-8v-32c0-4.417969-3.582031-8-8-8zm-8 32h-64v-16h64zm0 0"/></svg>