<svg height="480pt" viewBox="-120 0 480 480" width="480pt" xmlns="http://www.w3.org/2000/svg"><path d="m152 120h-64c-48.578125.058594-87.9414062 39.421875-88 88v184c.0585938 48.578125 39.421875 87.941406 88 88h64c48.578125-.058594 87.941406-39.421875 88-88v-184c-.058594-48.578125-39.421875-87.941406-88-88zm-64 16h64c39.746094.042969 71.957031 32.253906 72 72v8h-208v-8c.042969-39.746094 32.253906-71.957031 72-72zm64 328h-64c-39.746094-.042969-71.957031-32.253906-72-72v-160h208v160c-.042969 39.746094-32.253906 71.957031-72 72zm0 0"/><path d="m120 64c-22.082031.027344-39.972656 17.917969-40 40h16c0-13.253906 10.746094-24 24-24s24 10.746094 24 24h16c-.027344-22.082031-17.917969-39.972656-40-40zm0 0"/><path d="m192 104c0-39.765625-32.234375-72-72-72s-72 32.234375-72 72h16c0-30.929688 25.070312-56 56-56s56 25.070312 56 56zm0 0"/><path d="m120 16c48.578125.058594 87.941406 39.421875 88 88h16c0-57.4375-46.5625-104-104-104s-104 46.5625-104 104h16c.058594-48.578125 39.421875-87.941406 88-88zm0 0"/><path d="m112 152h16v48h-16zm0 0"/></svg>