<svg height="512" viewBox="0 0 64 64" width="512" xmlns="http://www.w3.org/2000/svg"><g id="Computer_Game-Laptop" data-name="Computer Game-Laptop"><path d="m61 50h-2v-33a5.006 5.006 0 0 0 -5-5h-7.331a20.932 20.932 0 0 0 -29.338 0h-7.331a5.006 5.006 0 0 0 -5 5v33h-2a1 1 0 0 0 -1 1v4a3 3 0 0 0 3 3h54a3 3 0 0 0 3-3v-4a1 1 0 0 0 -1-1zm-29-42a19 19 0 1 1 -19 19 19.021 19.021 0 0 1 19-19zm-25 9a3 3 0 0 1 3-3h5.539a21 21 0 1 0 32.922 0h5.539a3 3 0 0 1 3 3v33h-50zm29 35a1 1 0 0 1 -1 1h-6a1 1 0 0 1 -1-1zm24 3a1 1 0 0 1 -1 1h-54a1 1 0 0 1 -1-1v-3h22a3 3 0 0 0 3 3h6a3 3 0 0 0 3-3h22z"/><path d="m21 38h2.249a3.011 3.011 0 0 0 2.974-2.6l.719-5.4h10.116l.719 5.4a3.011 3.011 0 0 0 2.974 2.6h2.249a3 3 0 0 0 3-3v-11a8.009 8.009 0 0 0 -8-8h-12a8.009 8.009 0 0 0 -8 8v11a3 3 0 0 0 3 3zm-1-14a6.006 6.006 0 0 1 6-6h12a6.006 6.006 0 0 1 6 6v11a1 1 0 0 1 -1 1h-2.249a1 1 0 0 1 -.991-.868l-.72-5.4a2.006 2.006 0 0 0 -1.982-1.732h-10.116a2.006 2.006 0 0 0 -1.982 1.735l-.72 5.4a1 1 0 0 1 -.991.868h-2.249a1 1 0 0 1 -1-1z"/><path d="m24 26h2v-2h2v-2h-2v-2h-2v2h-2v2h2z"/><path d="m38 20h2v2h-2z"/><path d="m40 22h2v2h-2z"/><path d="m38 24h2v2h-2z"/><path d="m36 22h2v2h-2z"/><path d="m29 20h2v2h-2z"/><path d="m33 20h2v2h-2z"/></g></svg>