<svg height="512" viewBox="0 0 64 64" width="512" xmlns="http://www.w3.org/2000/svg"><g id="Computer_Game-Laptop-2" data-name="Computer Game-Laptop"><path d="m61.9 51.553-5.9-11.789v-31.764a3 3 0 0 0 -3-3h-42a3 3 0 0 0 -3 3v31.764l-5.895 11.789a1 1 0 0 0 -.105.447v5a2 2 0 0 0 2 2h56a2 2 0 0 0 2-2v-5a1 1 0 0 0 -.1-.447zm-32.9 1.447h6v1h-6zm-24.382-2 5-10h44.764l5 10zm5.382-43a1 1 0 0 1 1-1h42a1 1 0 0 1 1 1v31h-44zm-6 49v-4h23v1a2 2 0 0 0 2 2h6a2 2 0 0 0 2-2v-1h23v4z"/><path d="m10 47h2v2h-2z"/><path d="m14 47h2v2h-2z"/><path d="m18 47h28v2h-28z"/><path d="m48 47h2v2h-2z"/><path d="m52 47h2v2h-2z"/><path d="m15 43h2v2h-2z"/><path d="m11 43h2v2h-2z"/><path d="m19 43h2v2h-2z"/><path d="m23 43h2v2h-2z"/><path d="m27 43h2v2h-2z"/><path d="m31 43h2v2h-2z"/><path d="m35 43h2v2h-2z"/><path d="m39 43h2v2h-2z"/><path d="m43 43h2v2h-2z"/><path d="m47 43h2v2h-2z"/><path d="m51 43h2v2h-2z"/><path d="m51 9h-38a1 1 0 0 0 -1 1v26a1 1 0 0 0 1 1h38a1 1 0 0 0 1-1v-26a1 1 0 0 0 -1-1zm-1 26h-36v-24h36z"/><path d="m27 17h2v2h-2z"/><path d="m29 33a9.888 9.888 0 0 0 7.069-2.936 1 1 0 0 0 0-1.411l-5.655-5.653 5.653-5.653a1 1 0 0 0 0-1.411 9.888 9.888 0 0 0 -7.067-2.936 10 10 0 0 0 0 20zm0-18a7.9 7.9 0 0 1 4.9 1.682l-5.611 5.611a1 1 0 0 0 0 1.414l5.611 5.611a7.9 7.9 0 0 1 -4.9 1.682 8 8 0 0 1 0-16z"/><path d="m34 22h2v2h-2z"/><path d="m38 22h2v2h-2z"/><path d="m42 22h2v2h-2z"/></g></svg>