<svg xmlns="http://www.w3.org/2000/svg" width="32" height="32" viewBox="0 0 32 32">
  <g id="Group_1" data-name="Group 1" transform="translate(-24 -21)">
    <path id="Rectangle_2" data-name="Rectangle 2" d="M4,0H7.616a3,3,0,0,1,3,3V29a3,3,0,0,1-3,3H4a4,4,0,0,1-4-4V4A4,4,0,0,1,4,0Z" transform="translate(24 21)" fill="#1b4c64"/>
    <path id="Rectangle_3" data-name="Rectangle 3" d="M3,0H14.782a4,4,0,0,1,4,4V28a4,4,0,0,1-4,4H3a3,3,0,0,1-3-3V3A3,3,0,0,1,3,0Z" transform="translate(37.218 21)" fill="#1b4c64"/>
  </g>
</svg>
